<?xml version="1.0" encoding="UTF-8"?>
<!DOCTYPE svg  PUBLIC '-//W3C//DTD SVG 1.1//EN'  'http://www.w3.org/Graphics/SVG/1.1/DTD/svg11.dtd'>
<svg enable-background="new 385 0 822 1200" version="1.1" viewBox="385 0 822 1200" xml:space="preserve" xmlns="http://www.w3.org/2000/svg">
    <g color="white">
    <path fill="currentcolor" d="m738.5 761.5-36.8 122.6h-21.3v196.2c9.5-21.5 32.4-36.6 59.3-36.6 26.7 0 49.6 15 59.2 36.4v-196h-23.6l-36.8-122.6zm43.6 178.7h0.1v51h-88.9v-51h0.1c1.2-11.4 9.7-20.2 20.1-20.2s18.9 8.8 20.1 20.2h0.1v15.4h8.1v-15.4h0.1c1.2-11.4 9.7-20.2 20.1-20.2s18.9 8.8 20.1 20.2z" stroke="" stroke-miterlimit="10" stroke-width="2"/>
    <path fill="currentcolor" d="m1182.9 929.2v-10.6h4.2v-29.7h-12.4c-3.5-10.3-7.9-23.4-10.1-29.4-16.8-45.7-18.3-98.5-18.2-118-0.6 19.5-3.5 72.2-17.7 117.2-2 6.3-6.6 19.8-10.2 30.3h-12.1v29.7h3.6v9.7h-28.5v-48.5h-16.7c-14.3-43.8-15.7-92-15.6-110.5-0.6 18.6-3.2 67.1-15.7 110.5h-4.2v-22.5h4.2v-27.9h-9.4c-3.4-10.3-9.7-29.1-12.6-36.7-16.8-45.7-18.3-98.5-18.2-118-0.6 19.5-3.5 72.2-17.7 117.2-2.5 7.9-9.1 27.2-12.7 37.6h-1.7v-89.7c3.6-8.2 7.9-15.3 7.9-15.3v-67.2h2l-2-6v-2h-0.7c-3.4-10.4-9.1-28.2-11-35.8-2-8.2-6.1-31.2-6.9-36.2v-19.7c2-0.1 3.5-0.7 3.5-1.4s-1.5-1.3-3.5-1.4v-9.4h-0.9v9.4c-2 0.1-3.5 0.7-3.5 1.4s1.5 1.3 3.5 1.4v23c-1.4 8.1-4.5 25.2-6.1 31.9-1.5 5.8-5.1 17.5-8.3 27.4v-99.4h3.6v-43.1h-4.1v-32.9c2.3-0.1 4.1-0.8 4.1-1.7s-1.8-1.6-4.1-1.7v-11h-1.1v11c-2.3 0.1-4.1 0.8-4.1 1.7s1.8 1.6 4.1 1.7v32.9h-4.4c-3.4-28.8-9.1-76.5-11.2-96.9-1.4-13.2-2.5-29.1-3.3-44.3 1.9-0.6 3.4-2.4 3.4-4.6 0-2.4-1.7-4.3-3.8-4.8-0.4-8.2-0.7-16-0.9-22.7h12.3v-4.9h-12.5c-0.4-10.6-0.5-17.5-0.5-17.5s0.1 6.9 0 17.5h-0.5v4.9h0.4c-0.1 6.7-0.2 14.5-0.5 22.9-2 0.6-3.4 2.4-3.4 4.6 0 2.1 1.3 3.9 3.1 4.5-0.6 14.7-1.6 30.3-3.2 44.4-2.3 20.3-7.3 68.1-10.2 97h-3.7v-32.9c2.3-0.1 4.1-0.8 4.1-1.7s-1.8-1.6-4.1-1.7v-11h-1.1v11c-2.3 0.1-4.1 0.8-4.1 1.7s1.8 1.6 4.1 1.7v32.9h-3.3v43.1h3v29.1h-13.3v-113h-6v-81.4l8.5-12.9v-16.4c6.5 1.6 12.4 4.2 13.6 5.5 1.8 2 0.2-11.7-13.6-14.6v-21h-8.5v-27.9h8.5v-37.6h-1.6v12.8h-4c-2.7-10.5-8.4-33.2-8.9-38.2-0.6-6.7-4.2-51-4.2-51s-0.3 27.9-3.6 51c-1.4 10-2.6 19.5-3.6 27.1-4.2-33.5-10.8-87.9-12.7-111.4-1.1-13.5-2.3-38-3.3-62.5 2.3-1.1 3.8-3.4 3.8-6 0-2.9-1.8-5.3-4.4-6.3-0.7-16.4-1.2-32-1.7-43.5h7.8v-7.5h-8.1c-0.3-7.2-0.4-11.5-0.4-11.5s-0.7 29.5-1.7 62.1c-2.9 0.7-5 3.3-5 6.5 0 3 1.9 5.5 4.6 6.3-0.8 24.4-1.7 48.7-2.7 62.2-2.1 29.9-11.3 110.7-14 133.5h-3.1v-29.3h-0.4v29.3h-2.6v41.9h-11.5v8.8c-8.5 6.2-14 14.9-10.1 11.7 2.1-1.7 6-2.5 10.1-2.8v3.1c-7.1 5.1-11.8 10.4-14 13.1 1.5-0.7 4.2-1.7 8.9-3.1 1.9-0.6 3.6-1 5.1-1.5v7.8s7 10 11.5 19v84.7h-5.3v-14.1c2.3-0.1 4.1-0.8 4.1-1.7s-1.8-1.6-4.1-1.7v-11h-1.1v11c-2.3 0.1-4.1 0.8-4.1 1.7s1.8 1.6 4.1 1.7v14.1h-0.3v112.9h-10.9v-68h2.4v-23.7h-2.4v-15.3c2.9 0.3 4.9 0.2 5.5-0.5 3-3.6-11.9-14.5-14.4-35.2-1.2-10.1-7-48.1-10.1-84.4-0.6-7.4-1.2-14.7-1.6-21.8 1.7-0.7 3-2.5 3-4.5 0-2.3-1.5-4.1-3.5-4.7-0.5-8-0.8-15.3-1-21.6h13.8v-5.7h-14c-0.2-4.3-0.3-7.9-0.3-10.6 0 2.7 0.1 6.3 0.1 10.6h-0.8v5.7h0.8c0 6.2 0 13.5-0.2 21.5-2.4 0.2-4.3 2.3-4.3 4.8 0 2.4 1.8 4.4 4 4.8-0.2 7.1-0.5 14.6-0.9 22.1-2.1 36.1-7.3 74.1-10.6 85.5-0.8 3-1.6 5.6-2.2 7.9h-2.8v-19.2c3.4-0.1 6.1-1.2 6.1-2.5s-2.7-2.4-6.1-2.5v-16.4h-1.6v16.4c-3.4 0.1-6.1 1.2-6.1 2.5s2.7 2.4 6.1 2.5v19.2h-45.7v-19.2c3.4-0.1 6.1-1.2 6.1-2.5s-2.7-2.4-6.1-2.5v-16.4h-1.6v16.4c-3.4 0.1-6.1 1.2-6.1 2.5s2.7 2.4 6.1 2.5v19.2h-1.8v16.3l-21.3 80.1c-2.2-10.9-4.3-24-6-39.4-3.6-33.9-9.8-137.1-9.8-137.1s-4.2 87.8-9.6 137.1c-2.6 23.3-6.4 41.8-10.2 56h-3v-38.6h-1.2v38.8h-8.1v1.2h8.1v5.1h-5.7v1.4h5.7v5.3c-5.5 16.7-10.2 24.4-10.2 24.4h5.6v90.4h-12.7v23.8c-0.4 0.5-0.4 1.1 0 1.7 2.8 4.2 5.1 6.3 8.5 15.2v131h-17.6v-11.5h8.3s-15-41.5-20.4-55.1c-23-57.4-25-123.8-24.9-148.4-0.8 24.6-4.7 90.8-24.2 147.3-4.8 14-20.7 56.1-20.7 56.1h7.2v44.2l-23.1 23.6v-62c4.5-2.3 8.1-5.8 8.1-5.8s-5.3-9-8.9-17.5-10.5-70-10.5-70l-3.1 31.6h-3.2v-7.9h-6v7.9h-23.6c-9.1-42.9-10.1-83.7-10-101.7-0.7 24-4.3 88.8-21.7 144.1-4.3 13.7-25.9 54.9-25.9 54.9h6v24.1h2.9c-6.3 6.9-15 16.3-18.9 20.3h-3.9v36.7s7.9 8.2 12.1 17.9v218.1h779v-214c2.9-7.8 6.2-13.2 7.9-15.7h1.2v-37.3h-18.2zm-552.3 11.8h-8.6v221.7h-88.5v-221.7h-9.4v-32.4h106.5v32.4zm190-645.8c0.2-4.4 1.6-7.9 3.4-7.9 1.7 0 3.2 3.5 3.3 7.9v24.3h-6.7v-24.3zm-4.9 459.6h7.3v34.6h-7.3v-34.6zm-25.4-105.6h10.6v9.7h-10.6v-9.7zm-21.4-168.7h10.6v9.7h-10.6v-9.7zm-2.9 168.7h10.6v9.7h-10.6v-9.7zm-53.1-182.9 3.4 52.7 14.8-55.5 14.8 55.5 3.4-52.7 4.5 68.4h-3.7l0.1 0.4h-38.2l0.1-0.4h-3.7l4.5-68.4zm5.1 150.1v-29.7h23.7v29.7h-23.7zm10 32.8v9.7h-10.6v-9.7h10.6zm-10-82v-23.7h23.7v23.7h-23.7zm23.7 82h10.6v9.7h-10.6v-9.7zm-48.6 0h10.6v9.7h-10.6v-9.7zm-24.3 0h10.6v9.7h-10.6v-9.7zm-23.8-98.2h2.4c-0.5 1.8-1 3.5-1.5 5.1h-0.9v-5.1zm0 6.6h0.5c-0.2 0.5-0.3 1-0.5 1.5v-1.5zm-0.5 91.6h10.6v9.7h-10.6v-9.7zm182.9 519.9h-38.9v-63.8c0-24.7-21.8-44.7-48.8-44.7s-48.8 20-48.8 44.7v63.8h-39v-46h4.2v-57h3.6v-68h4.9v-123.2h0.7l7.2-60.7 6.3 53.4 32.9-154.8h53.4l34.4 161.8 7.1-60.4 7.2 60.7h0.7v123.2h4.9v68h3.6v57h4.2l0.2 46zm86.2-666.8c0.2-4.4 1.6-7.9 3.4-7.9s3.2 3.5 3.3 7.9v24.3h-6.7v-24.3zm-43.2 203.9h7.3v34.6h-7.3v-34.6zm-7.3-411c0.2-4.4 1.6-7.9 3.4-7.9 1.7 0 3.2 3.5 3.3 7.9v24.3h-6.7v-24.3zm-12.4 252.8v13.5h-11.7v-13.5c0.3-3.8 2.8-6.8 5.8-6.8 3.1 0.1 5.6 3 5.9 6.8zm-1 97.5v34.6h-7.3v-34.6h7.3zm-10.9-350.3c0.2-4.4 1.6-7.9 3.4-7.9 1.7 0 3.2 3.5 3.3 7.9v24.3h-6.7v-24.3zm110.6 613.5v32.3h-8.6v221.7h-88.5v-221.7h-9.4v-32.4h-6.1l21.2-27.5v-39.6h-5.7s14.7-42.5 19.2-56.7c18-57.1 21.7-123.9 22.4-148.7-0.1 24.8 1.8 91.8 23.1 149.8 5 13.7 18.9 55.6 18.9 55.6h-5.2v39.7l18.7 21.8 4.7 5.5-4.7 0.2zm239.8 61.5h-8.6v192.5h-88.5v-192.5h-9.4v-32.4h106.5v32.4z" stroke="" stroke-miterlimit="10" stroke-width="2"/>
    <rect fill="currentcolor" x="892.2" y="906.4" width="10.9" height="10.9" stroke="" stroke-miterlimit="10" stroke-width="2"/>
    <rect fill="currentcolor" x="928.6" y="906.4" width="10.9" height="10.9" stroke="" stroke-miterlimit="10" stroke-width="2"/>
    <rect fill="currentcolor" x="855.8" y="906.4" width="10.9" height="10.9" stroke="" stroke-miterlimit="10" stroke-width="2"/>
    <rect fill="currentcolor" x="570.4" y="911.3" width="10.9" height="10.9" stroke="" stroke-miterlimit="10" stroke-width="2"/>
    <rect fill="currentcolor" x="606.8" y="911.3" width="10.9" height="10.9" stroke="" stroke-miterlimit="10" stroke-width="2"/>
    <rect fill="currentcolor" x="534" y="911.3" width="10.9" height="10.9" stroke="" stroke-miterlimit="10" stroke-width="2"/>
    <rect fill="currentcolor" x="892.2" y="836.1" width="5.5" height="8.5" stroke="" stroke-miterlimit="10" stroke-width="2"/>
    <rect fill="currentcolor" x="916.5" y="836.1" width="5.5" height="8.5" stroke="" stroke-miterlimit="10" stroke-width="2"/>
    <rect fill="currentcolor" x="867.9" y="836.1" width="5.5" height="8.5" stroke="" stroke-miterlimit="10" stroke-width="2"/>
    <rect fill="currentcolor" x="1131.3" y="940.4" width="10.9" height="10.9" stroke="" stroke-miterlimit="10" stroke-width="2"/>
    <rect fill="currentcolor" x="1167.8" y="940.4" width="10.9" height="10.9" stroke="" stroke-miterlimit="10" stroke-width="2"/>
    <rect fill="currentcolor" x="1094.9" y="940.4" width="10.9" height="10.9" stroke="" stroke-miterlimit="10" stroke-width="2"/>
    <rect fill="currentcolor" x="437" y="930.7" width="8.7" height="8.7" stroke="" stroke-miterlimit="10" stroke-width="2"/>
    <rect fill="currentcolor" x="465.9" y="930.7" width="8.7" height="8.7" stroke="" stroke-miterlimit="10" stroke-width="2"/>
    <rect fill="currentcolor" x="432.1" y="876" width="8.7" height="8.7" stroke="" stroke-miterlimit="10" stroke-width="2"/>
    <rect fill="currentcolor" x="497.4" y="846.9" width="8.7" height="8.7" stroke="" stroke-miterlimit="10" stroke-width="2"/>
    <rect fill="currentcolor" x="408.1" y="930.7" width="8.7" height="8.7" stroke="" stroke-miterlimit="10" stroke-width="2"/>
    </g>
</svg>

